<?xml version="1.0" encoding="utf-8"?>
<!-- Generator: Adobe Illustrator 22.1.0, SVG Export Plug-In . SVG Version: 6.00 Build 0)  -->
<svg version="1.1" id="Layer_1" xmlns="http://www.w3.org/2000/svg" xmlns:xlink="http://www.w3.org/1999/xlink" x="0px" y="0px"
	 viewBox="0 0 100 100" style="enable-background:new 0 0 100 100;" xml:space="preserve">
<style type="text/css">
	.st0{fill:#2FD4FF;}
	.st1{fill:url(#SVGID_1_);}
	.st2{fill:#3F3EED;}
	.st3{fill:#FFFFFF;}
</style>
<g>
	<path class="st0" d="M50,100c27.6,0,50-22.4,50-50S77.6,0,50,0S0,22.4,0,50S22.4,100,50,100z"/>
	
		<linearGradient id="SVGID_1_" gradientUnits="userSpaceOnUse" x1="69.5075" y1="29.4013" x2="10.1677" y2="98.1493" gradientTransform="matrix(1 0 0 -1 0 102)">
		<stop  offset="0" style="stop-color:#46A2FF"/>
		<stop  offset="1" style="stop-color:#3F3EED"/>
	</linearGradient>
	<path class="st1" d="M50,93.1c23.8,0,43.1-19.3,43.1-43.1C93.1,26.2,73.8,6.9,50,6.9S6.9,26.2,6.9,50C6.9,73.8,26.2,93.1,50,93.1z"
		/>
	<path class="st2" d="M50,94.8C25.3,94.8,5.2,74.7,5.2,50c0-6.2,1.3-12.3,3.7-17.9c0.2-0.6,0.8-1,1.4-1.1c0.6-0.1,1.3,0.2,1.6,0.7
		c0.4,0.5,0.4,1.2,0.1,1.8C9.8,38.7,8.6,44.3,8.6,50c0,16.7,10.1,31.8,25.5,38.2c15.5,6.4,33.3,2.9,45.1-9s15.4-29.6,9-45.1
		C81.8,18.7,66.7,8.6,50,8.6c-5.7,0-11.3,1.2-16.6,3.4c-0.6,0.3-1.2,0.2-1.7-0.2c-0.5-0.4-0.8-1-0.7-1.6c0.1-0.6,0.5-1.2,1.1-1.4
		C37.7,6.4,43.8,5.2,50,5.2c24.8,0,44.8,20.1,44.8,44.8S74.8,94.8,50,94.8z M16.9,24.1c-0.7,0-1.3-0.4-1.6-1
		c-0.3-0.6-0.2-1.3,0.2-1.8c1.1-1.4,2.4-2.7,3.7-3.9c0.4-0.4,1.1-0.6,1.7-0.4c0.6,0.2,1,0.7,1.2,1.3c0.1,0.6,0,1.2-0.5,1.7
		c-1.2,1.1-2.3,2.3-3.4,3.6C17.9,23.9,17.4,24.1,16.9,24.1z"/>
	<path class="st3" d="M50,87.9c-1,0-1.7-0.8-1.7-1.7s0.8-1.7,1.7-1.7c2.8,0,5.5-0.3,8.2-1c0.6-0.2,1.3,0,1.7,0.4
		c0.4,0.5,0.6,1.1,0.4,1.7c-0.2,0.6-0.7,1.1-1.3,1.2C56.1,87.6,53,87.9,50,87.9z M67.2,83.6c-0.8,0-1.5-0.5-1.7-1.3
		c-0.2-0.8,0.2-1.6,0.8-1.9c1.7-0.9,3.4-2,4.9-3.2c0.5-0.4,1.1-0.5,1.7-0.3c0.6,0.2,1,0.7,1.1,1.4c0.1,0.6-0.2,1.2-0.6,1.6
		c-1.7,1.3-3.5,2.5-5.4,3.6C67.8,83.5,67.5,83.6,67.2,83.6z M79.3,73c-0.6,0-1.2-0.4-1.5-0.9c-0.3-0.6-0.2-1.3,0.1-1.8
		c4.3-5.9,6.6-13,6.6-20.2c0-1,0.8-1.7,1.7-1.7c1,0,1.7,0.8,1.7,1.7c0,8-2.5,15.8-7.2,22.2C80.4,72.7,79.9,73,79.3,73z M44.8,35
		l17.4,11.8c1,0.7,1.6,1.9,1.6,3.1s-0.6,2.4-1.6,3.1L44.8,64.9c-1.1,0.7-2.5,0.7-3.6,0c-1.1-0.7-1.7-1.9-1.6-3.2V38.2
		c-0.1-1.3,0.5-2.5,1.6-3.2C42.4,34.4,43.8,34.4,44.8,35z"/>
</g>
</svg>
